<svg xmlns="http://www.w3.org/2000/svg" viewBox="0 0 800 600" fill="none">
  <path d="M400 100c165.685 0 300 134.315 300 300s-134.315 300-300 300-300-134.315-300-300 134.315-300 300-300z" fill="#1a1a1a" opacity="0.1"/>
  <path d="M400 150c138.071 0 250 111.929 250 250s-111.929 250-250 250-250-111.929-250-250 111.929-250 250-250z" stroke="#ef4444" stroke-width="2" opacity="0.2"/>
  <path d="M400 200c110.457 0 200 89.543 200 200s-89.543 200-200 200-200-89.543-200-200 89.543-200 200-200z" stroke="#ef4444" stroke-width="2" opacity="0.3"/>
  <g transform="translate(300,250)">
    <path d="M100 0l-50-50h-30l-20 20v30l50 50h30l20-20z" fill="#ef4444"/>
    <path d="M0 0l50 50h30l20-20v-30l-50-50h-30l-20 20z" fill="#ef4444" opacity="0.7"/>
  </g>
</svg>