<svg xmlns="http://www.w3.org/2000/svg" viewBox="0 0 400 100" fill="none">
  <!-- Amazon Logo -->
  <g transform="translate(50,25)">
    <path d="M37.5 50c-8.3 0-15.9-3.1-21.7-8.2-0.6-0.5-0.1-1.3 0.7-0.9 8.9 5.2 19.9 8.3 31.3 8.3 7.7 0 16.1-1.6 23.8-4.9 1.2-0.5 2.1 0.8 1 1.6-6.5 4.6-15.8 7.1-25.1 7.1z" fill="#ef4444"/>
    <path d="M41.7 45.1c-1.1-1.4-7.2-0.7-10-0.3-0.8 0.1-1-0.6-0.2-1.1 4.9-3.4 12.9-2.4 13.8-1.3 0.9 1.2-0.2 9.3-4.9 13.2-0.7 0.6-1.4 0.3-1.1-0.5 1.1-2.7 3.5-8.7 2.4-10z" fill="#ef4444"/>
  </g>
  <!-- D&H Logo -->
  <g transform="translate(250,25)">
    <path d="M25 15h10v40H25zM45 15h10v40H45z" fill="#ef4444"/>
    <path d="M15 35h50v10H15z" fill="#ef4444" opacity="0.7"/>
  </g>
</svg>